<svg xmlns="http://www.w3.org/2000/svg" viewBox="0 0 512 512" role="img" aria-label="Midjourney Prompt Forge icon">
  <rect width="512" height="512" rx="96" fill="#182025"/>
  <path d="M88 352V160h47l47 82 47-82h47v192h-48V244l-32 56h-28l-32-56v108H88Z" fill="#ffffff"/>
  <path d="M314 352c-33 0-59-10-78-31l31-36c13 14 27 21 43 21 22 0 33-13 33-40V160h51v109c0 27-7 48-21 62-14 14-34 21-59 21Z" fill="#8fd4e5"/>
  <path d="M118 104h276" stroke="#c88052" stroke-width="24" stroke-linecap="round"/>
  <path d="M118 408h276" stroke="#8fd4e5" stroke-width="24" stroke-linecap="round"/>
</svg>
